<svg width="21" height="22" viewBox="0 0 21 22" fill="none" xmlns="http://www.w3.org/2000/svg">
<path d="M4.90332 1L1.90332 5V19C1.90332 19.5304 2.11403 20.0391 2.48911 20.4142C2.86418 20.7893 3.37289 21 3.90332 21H17.9033C18.4338 21 18.9425 20.7893 19.3175 20.4142C19.6926 20.0391 19.9033 19.5304 19.9033 19V5L16.9033 1H4.90332Z" stroke="black" stroke-width="2" stroke-linecap="round" stroke-linejoin="round"/>
<path d="M1.90332 5H19.9033" stroke="black" stroke-width="2" stroke-linecap="round" stroke-linejoin="round"/>
<path d="M14.9033 9C14.9033 10.0609 14.4819 11.0783 13.7317 11.8284C12.9816 12.5786 11.9642 13 10.9033 13C9.84245 13 8.82504 12.5786 8.07489 11.8284C7.32475 11.0783 6.90332 10.0609 6.90332 9" stroke="black" stroke-width="2" stroke-linecap="round" stroke-linejoin="round"/>
</svg>
